<svg  data-name="Layer 1" viewBox="0 0 64 64"><path fill="#ec6d5e" stroke="#5f363a" stroke-linecap="round" stroke-linejoin="round" stroke-width="3" d="M32,21.46H16.69V13A8.84,8.84,0,0,1,32,13Z"/><path fill="#cbc46d" stroke="#5f363a" stroke-linecap="round" stroke-linejoin="round" stroke-width="3" d="M8.42,21.46A14.42,14.42,0,0,1,5.85,7.61h0a2,2,0,0,1,2.3-1.32h0a14.46,14.46,0,0,1,11.5,15.17Z"/><line x1="12.39" x2="15.32" y1="16.34" y2="21.46" fill="none" stroke="#5f363a" stroke-linecap="round" stroke-linejoin="round" stroke-width="3"/><path fill="#ffdd7d" stroke="#5f363a" stroke-linecap="round" stroke-linejoin="round" stroke-width="3" d="M57.86,21.46a7.37,7.37,0,0,0-9.24-8.87v0a7.37,7.37,0,0,0-13,0v0a7.38,7.38,0,0,0-9.24,8.87Z"/><path fill="#a6c0cf" stroke="#5f363a" stroke-linecap="round" stroke-linejoin="round" stroke-width="3" d="M49.47,55.53a30,30,0,0,0,14-24.91H.5a30,30,0,0,0,14,24.91,14.75,14.75,0,0,0,7.87,2.22H41.6A14.75,14.75,0,0,0,49.47,55.53Z"/><path fill="#ced8da" stroke="#5f363a" stroke-linecap="round" stroke-linejoin="round" stroke-width="3" d="M2.5,21.46h59a2,2,0,0,1,2,2v7.16a0,0,0,0,1,0,0H.5a0,0,0,0,1,0,0V23.46A2,2,0,0,1,2.5,21.46Z"/></svg>
